<?xml version="1.0" encoding="UTF-8"?>
<svg id="Layer_2" data-name="Layer 2" xmlns="http://www.w3.org/2000/svg" xmlns:xlink="http://www.w3.org/1999/xlink" viewBox="0 0 275.94 313.14">
  <defs>
    <style>
      .cls-1 {
        fill: #231f20;
        font-family: Magneto-Bold, Magneto;
        font-size: 224.31px;
        font-weight: 700;
      }

      .cls-2 {
        fill: none;
      }

      .cls-3 {
        fill: url(#linear-gradient);
        stroke: #000101;
        stroke-linecap: round;
        stroke-linejoin: round;
        stroke-width: 4px;
      }
    </style>
    <linearGradient id="linear-gradient" x1="6.12" y1="148.35" x2="268.94" y2="148.35" gradientUnits="userSpaceOnUse">
      <stop offset="0" stop-color="#001e3d"/>
      <stop offset=".42" stop-color="#286689"/>
      <stop offset="1" stop-color="#63cdf6"/>
    </linearGradient>
  </defs>
  <g id="Layer_1-2" data-name="Layer 1">
    <g id="Generative_Object" data-name="Generative Object">
      <path class="cls-3" d="M239.62,193.29c23.91-24.8,36.22-57.76,25.32-91.23-8.93-27.43-32.12-47.06-60.72-51.33-25.63-3.83-51.71,4.84-70.16,23.04-16.23,16.02-22.82,38.33-28,60.07-4.11,17.22-7.22,37.59-16.5,51.97-6.6,10.23-17.32,16.71-29.65,16.8-12,.09-22.95-6.75-27.65-17.69-2.67-6.21-2.72-12.9.66-18.56.76-.67,1.92-2,2.82-2.18l4.82-.95c1,3.23.45,6.22.66,9.41.4,5.92,4.61,10.29,9.5,12.09,5.49,2.03,11.52.61,15.82-3.47,4.86-4.61,6.55-11.82,5.06-18.44-2.49-11.1-10.81-19.25-21.66-22.13-11.12-2.96-22.61-.2-31.14,7.63-9.34,8.57-13.68,20.73-12.45,33.52,2.93,30.42,30.61,51.78,58.93,59.77,14.66,4.14,29.45,5.66,44.87,5.16,46.42-1.51,97-19.79,129.49-53.5Z"/>
    </g>
    <text class="cls-1" transform="translate(63.21 245.12)"><tspan x="0" y="0">P</tspan></text>
    <rect class="cls-2" width="275.94" height="275.94"/>
  </g>
</svg>